<svg xmlns="http://www.w3.org/2000/svg" width="84.221" height="32.739" viewBox="0 0 84.221 32.739">
  <path id="Path_1" data-name="Path 1" d="M18.235,0,5.754-32.212h4.614l8.372,23.4Q19.751-6,20.432-3.538q.747-2.637,1.736-5.273l8.7-23.4H35.22L22.607,0ZM34.583-11.667q0-6.482,3.6-9.6a10.858,10.858,0,0,1,7.339-2.593,10.469,10.469,0,0,1,7.866,3.153Q56.445-17.556,56.445-12a15.437,15.437,0,0,1-1.351,7.086A9.566,9.566,0,0,1,51.161-.9,11.451,11.451,0,0,1,45.525.527,10.489,10.489,0,0,1,37.6-2.615Q34.583-5.757,34.583-11.667Zm4.065,0q0,4.482,1.956,6.713a6.268,6.268,0,0,0,4.922,2.23,6.232,6.232,0,0,0,4.9-2.241Q52.38-7.207,52.38-11.8q0-4.329-1.967-6.559a6.255,6.255,0,0,0-4.889-2.23A6.282,6.282,0,0,0,40.6-18.369Q38.647-16.15,38.647-11.667ZM77.056-7.515l4.087.505A9.971,9.971,0,0,1,77.561-1.45,10.767,10.767,0,0,1,70.881.527a10.674,10.674,0,0,1-8.119-3.153q-3-3.153-3-8.844,0-5.889,3.032-9.141a10.264,10.264,0,0,1,7.866-3.252,9.976,9.976,0,0,1,7.646,3.186q2.966,3.186,2.966,8.965,0,.352-.022,1.055H63.85a8.967,8.967,0,0,0,2.175,5.889A6.474,6.474,0,0,0,70.9-2.725a6.052,6.052,0,0,0,3.713-1.143A7.584,7.584,0,0,0,77.056-7.515ZM64.07-13.909H77.1a7.905,7.905,0,0,0-1.494-4.417,6.062,6.062,0,0,0-4.9-2.285,6.283,6.283,0,0,0-4.581,1.824A7.218,7.218,0,0,0,64.07-13.909ZM86.021,0V-32.212h3.955V0Z" transform="translate(-5.754 32.212)" fill="#707070"/>
</svg>
